{
    "asset" : {
        "generator" : "Khronos glTF Blender I/O v1.5.17",
        "version" : "2.0"
    },
    "scene" : 0,
    "scenes" : [
        {
            "name" : "Scene",
            "nodes" : [
                0,
                3
            ]
        }
    ],
    "nodes" : [
        {
            "mesh" : 0,
            "name" : "Jaw"
        },
        {
            "mesh" : 1,
            "name" : "L",
            "rotation" : [
                0.7071068286895752,
                0,
                0,
                0.7071068286895752
            ],
            "scale" : [
                -0.30228301882743835,
                -0.30228301882743835,
                -0.30228301882743835
            ],
            "translation" : [
                1.029315710067749,
                0,
                0.020298710092902184
            ]
        },
        {
            "mesh" : 2,
            "name" : "R",
            "rotation" : [
                0.7071068286895752,
                0,
                0,
                0.7071068286895752
            ],
            "scale" : [
                -0.30228301882743835,
                -0.30228301882743835,
                -0.30228301882743835
            ],
            "translation" : [
                -1.0444037914276123,
                0,
                0.020298710092902184
            ]
        },
        {
            "children" : [
                1,
                2
            ],
            "mesh" : 3,
            "name" : "Head"
        }
    ],
    "meshes" : [
        {
            "name" : "Sphere.001",
            "primitives" : [
                {
                    "attributes" : {
                        "POSITION" : 0
                    },
                    "indices" : 1
                }
            ]
        },
        {
            "name" : "Circle.001",
            "primitives" : [
                {
                    "attributes" : {
                        "POSITION" : 2
                    },
                    "indices" : 3
                }
            ]
        },
        {
            "name" : "Circle",
            "primitives" : [
                {
                    "attributes" : {
                        "POSITION" : 4
                    },
                    "indices" : 5
                }
            ]
        },
        {
            "name" : "Sphere",
            "primitives" : [
                {
                    "attributes" : {
                        "POSITION" : 6
                    },
                    "indices" : 7
                }
            ]
        }
    ],
    "accessors" : [
        {
            "bufferView" : 0,
            "componentType" : 5126,
            "count" : 377,
            "max" : [
                2.0685579776763916,
                -0.9071069955825806,
                2.0685579776763916
            ],
            "min" : [
                -2.068557024002075,
                -2.14092755317688,
                -2.0685577392578125
            ],
            "type" : "VEC3"
        },
        {
            "bufferView" : 1,
            "componentType" : 5123,
            "count" : 2250,
            "type" : "SCALAR"
        },
        {
            "bufferView" : 2,
            "componentType" : 5126,
            "count" : 64,
            "max" : [
                1,
                1.8529577255249023,
                1.0000003576278687
            ],
            "min" : [
                -1,
                -8.551209449768066,
                -1.0000001192092896
            ],
            "type" : "VEC3"
        },
        {
            "bufferView" : 3,
            "componentType" : 5123,
            "count" : 372,
            "type" : "SCALAR"
        },
        {
            "bufferView" : 4,
            "componentType" : 5126,
            "count" : 64,
            "max" : [
                1,
                1.8529577255249023,
                1.0000003576278687
            ],
            "min" : [
                -1,
                -8.551209449768066,
                -1.0000001192092896
            ],
            "type" : "VEC3"
        },
        {
            "bufferView" : 5,
            "componentType" : 5123,
            "count" : 372,
            "type" : "SCALAR"
        },
        {
            "bufferView" : 6,
            "componentType" : 5126,
            "count" : 782,
            "max" : [
                2.3385491371154785,
                2.2866322994232178,
                2.0685579776763916
            ],
            "min" : [
                -2.356396436691284,
                -1.2763019800186157,
                -2.0685577392578125
            ],
            "type" : "VEC3"
        },
        {
            "bufferView" : 7,
            "componentType" : 5123,
            "count" : 4716,
            "type" : "SCALAR"
        }
    ],
    "bufferViews" : [
        {
            "buffer" : 0,
            "byteLength" : 4524,
            "byteOffset" : 0
        },
        {
            "buffer" : 0,
            "byteLength" : 4500,
            "byteOffset" : 4524
        },
        {
            "buffer" : 0,
            "byteLength" : 768,
            "byteOffset" : 9024
        },
        {
            "buffer" : 0,
            "byteLength" : 744,
            "byteOffset" : 9792
        },
        {
            "buffer" : 0,
            "byteLength" : 768,
            "byteOffset" : 10536
        },
        {
            "buffer" : 0,
            "byteLength" : 744,
            "byteOffset" : 11304
        },
        {
            "buffer" : 0,
            "byteLength" : 9384,
            "byteOffset" : 12048
        },
        {
            "buffer" : 0,
            "byteLength" : 9432,
            "byteOffset" : 21432
        }
    ],
    "buffers" : [
        {
            "byteLength" : 30864,
            "uri" : "data:application/octet-stream;base64,"
        }
    ]
}
